<?xml version="1.0" standalone="no"?>
<!DOCTYPE svg PUBLIC "-//W3C//DTD SVG 20010904//EN"
 "http://www.w3.org/TR/2001/REC-SVG-20010904/DTD/svg10.dtd">
<svg version="1.0" xmlns="http://www.w3.org/2000/svg"
 width="200.000000pt" height="200.000000pt" viewBox="0 0 200.000000 200.000000"
 preserveAspectRatio="xMidYMid meet">

<g transform="translate(0.000000,200.000000) scale(0.100000,-0.100000)"
fill="#000000" stroke="none">
<path d="M1080 1195 c0 -25 2 -45 5 -45 12 0 54 56 55 73 0 12 -8 17 -30 17
-29 0 -30 -2 -30 -45z"/>
<path d="M440 1165 c0 -23 4 -25 45 -25 41 0 45 -2 45 -25 0 -23 -4 -25 -45
-25 -65 0 -85 -23 -85 -100 0 -47 4 -64 20 -80 26 -26 42 -25 69 4 l23 24 -24
4 c-20 3 -23 8 -23 48 0 45 0 45 35 45 l35 0 1 -70 c1 -69 2 -70 28 -70 14 0
26 3 26 8 0 4 0 63 0 131 0 150 -3 156 -91 156 -56 0 -59 -1 -59 -25z"/>
<path d="M630 985 l0 -205 30 0 c30 0 30 1 30 55 l0 55 43 0 c23 0 53 7 65 16
21 14 22 23 22 134 0 148 -1 150 -111 150 l-79 0 0 -205z m128 58 l-3 -98 -30
0 -30 0 -3 98 -3 97 36 0 36 0 -3 -97z"/>
<path d="M860 984 l0 -205 28 3 c25 3 27 6 28 53 l1 50 52 5 c74 8 81 20 81
150 0 143 -5 150 -111 150 l-79 0 0 -206z m128 59 l-3 -98 -32 -3 c-19 -2 -33
1 -33 7 -1 6 -1 47 -1 91 0 44 0 85 1 90 0 6 16 10 35 10 l36 0 -3 -97z"/>
<path d="M1212 1168 c3 -20 10 -23 51 -26 42 -3 47 -5 47 -28 0 -22 -4 -24
-48 -24 -67 0 -82 -18 -82 -102 0 -88 12 -98 113 -98 l77 0 0 133 c0 162 -3
167 -99 167 -59 0 -62 -1 -59 -22z m96 -175 c-3 -46 -4 -48 -35 -51 l-33 -3 0
50 0 51 36 0 35 0 -3 -47z"/>
<path d="M1407 1043 l2 -148 26 0 27 0 1 120 2 120 35 0 35 0 3 -122 3 -123
29 0 30 0 0 128 c0 169 -2 172 -113 172 l-82 0 2 -147z"/>
<path d="M1106 1109 c-24 -28 -26 -38 -26 -125 l0 -94 29 0 30 0 3 125 c2 69
0 125 -4 125 -3 0 -18 -14 -32 -31z"/>
</g>
</svg>
